<svg xmlns="http://www.w3.org/2000/svg" xmlns:xlink="http://www.w3.org/1999/xlink" width="500" zoomAndPan="magnify" viewBox="0 0 375 374.999991" height="500" preserveAspectRatio="xMidYMid meet" version="1.0"><defs><clipPath id="147107c458"><path d="M 62.375 81 L 272 81 L 272 260 L 62.375 260 Z M 62.375 81 " clip-rule="nonzero"/></clipPath><clipPath id="d49942f209"><path d="M 103.308594 119.445312 L 312.613281 119.445312 L 312.613281 296.859375 L 103.308594 296.859375 Z M 103.308594 119.445312 " clip-rule="nonzero"/></clipPath></defs><g clip-path="url(#147107c458)"><path fill="#d9d9d9" d="M 236.515625 81.925781 L 236.515625 196.925781 C 236.515625 196.925781 193.742188 110.675781 143.25 97.351562 C 90.722656 83.492188 62.375 116.753906 62.375 116.753906 C 62.375 116.753906 137.90625 77.976562 183.921875 163.96875 C 234.957031 259.339844 271.578125 259.339844 271.578125 259.339844 L 271.578125 116.988281 C 271.578125 97.621094 255.878906 81.925781 236.515625 81.925781 " fill-opacity="1" fill-rule="nonzero"/></g><g clip-path="url(#d49942f209)"><path fill="#ffffff" d="M 138.476562 297.066406 L 138.476562 182.0625 C 138.476562 182.0625 181.25 268.316406 231.742188 281.640625 C 284.269531 295.5 312.617188 262.238281 312.617188 262.238281 C 312.617188 262.238281 237.085938 301.015625 191.066406 215.023438 C 140.035156 119.652344 103.414062 119.652344 103.414062 119.652344 L 103.414062 262.003906 C 103.414062 281.367188 119.109375 297.066406 138.476562 297.066406 " fill-opacity="1" fill-rule="nonzero"/></g></svg>